<?xml version="1.0" standalone="no"?>
<svg xmlns="http://www.w3.org/2000/svg" viewBox="0 0 230.088 36" width="230.088" height="36"><g fill="#1bacdb" color="#1bacdb" transform="translate(0 4.291666666666666) scale(0.5833334)"><svg width="48.0" height="47.0" x="0.0" y="0.0" viewBox="0 0 48 47"><path fill="currentColor" fill-rule="evenodd" d="M32.083 0l-.46.265-2.644 1.527-13.062 7.542L3.854 30.228.267 36.442l-.267.46 2.117 1.222 13.925 8.042.123.07H48V27.57l-.071-.124L34.953 4.97 32.083 0zM25.04 5.292l6.654-3.841 6.547 11.34-13.2-7.5zm-7.67 4.43l6.604-3.814 15.317 8.703 6.725 11.65-28.647-16.54zm-.531.92l29.566 17.07-29.566 17.07v-34.14zM9.171 40.97l-.123-17.615 6.728-11.65v33.078L9.17 40.97zm-7.72-4.457l6.547-11.338.107 15.18-6.654-3.842zm45.487-7.88v7.627l-15.194 8.912H18.29l28.648-16.54zm0 8.858v7.681H33.842l13.096-7.681zM23.567 22.294l9.384 5.42-9.384 5.417V22.294zm1.06 1.84v7.156l6.198-3.577-6.198-3.578z"></path></svg></g><path fill="#1bacdb" fill-rule="nonzero" d="M6.24 17.95Q4.37 17.95 2.65 17.35Q0.94 16.75 0 15.77L0 15.77L0.70 14.40Q1.61 15.31 3.12 15.88Q4.63 16.44 6.24 16.44L6.24 16.44Q8.50 16.44 9.62 15.61Q10.75 14.78 10.75 13.46L10.75 13.46Q10.75 12.46 10.14 11.86Q9.53 11.26 8.64 10.93Q7.75 10.61 6.17 10.22L6.17 10.22Q4.27 9.74 3.14 9.30Q2.02 8.86 1.21 7.94Q0.41 7.03 0.41 5.47L0.41 5.47Q0.41 4.20 1.08 3.16Q1.75 2.11 3.14 1.49Q4.54 0.86 6.60 0.86L6.60 0.86Q8.04 0.86 9.42 1.26Q10.80 1.66 11.81 2.35L11.81 2.35L11.21 3.77Q10.15 3.07 8.95 2.72Q7.75 2.38 6.60 2.38L6.60 2.38Q4.39 2.38 3.28 3.23Q2.16 4.08 2.16 5.42L2.16 5.42Q2.16 6.43 2.77 7.04Q3.38 7.66 4.31 7.98Q5.23 8.30 6.79 8.69L6.79 8.69Q8.64 9.14 9.78 9.59Q10.92 10.03 11.71 10.93Q12.50 11.83 12.50 13.37L12.50 13.37Q12.50 14.64 11.82 15.68Q11.14 16.73 9.72 17.34Q8.30 17.95 6.24 17.95L6.24 17.95ZM21.17 17.93Q19.34 17.93 17.88 17.10Q16.42 16.27 15.58 14.81Q14.74 13.34 14.74 11.50L14.74 11.50Q14.74 9.65 15.58 8.18Q16.42 6.72 17.88 5.90Q19.34 5.09 21.17 5.09L21.17 5.09Q22.99 5.09 24.46 5.90Q25.92 6.72 26.75 8.18Q27.58 9.65 27.58 11.50L27.58 11.50Q27.58 13.34 26.75 14.81Q25.92 16.27 24.46 17.10Q22.99 17.93 21.17 17.93L21.17 17.93ZM21.17 16.42Q22.51 16.42 23.58 15.80Q24.65 15.19 25.25 14.06Q25.85 12.94 25.85 11.50L25.85 11.50Q25.85 10.06 25.25 8.93Q24.65 7.80 23.58 7.19Q22.51 6.58 21.17 6.58L21.17 6.58Q19.82 6.58 18.76 7.19Q17.69 7.80 17.08 8.93Q16.46 10.06 16.46 11.50L16.46 11.50Q16.46 12.94 17.08 14.06Q17.69 15.19 18.76 15.80Q19.82 16.42 21.17 16.42L21.17 16.42ZM36.29 17.93Q34.42 17.93 32.94 17.11Q31.46 16.30 30.62 14.82Q29.78 13.34 29.78 11.50L29.78 11.50Q29.78 9.65 30.62 8.18Q31.46 6.72 32.94 5.90Q34.42 5.09 36.29 5.09L36.29 5.09Q37.92 5.09 39.20 5.72Q40.49 6.36 41.23 7.58L41.23 7.58L39.96 8.45Q39.34 7.51 38.38 7.04Q37.42 6.58 36.29 6.58L36.29 6.58Q34.92 6.58 33.83 7.19Q32.74 7.80 32.12 8.93Q31.51 10.06 31.51 11.50L31.51 11.50Q31.51 12.96 32.12 14.08Q32.74 15.19 33.83 15.80Q34.92 16.42 36.29 16.42L36.29 16.42Q37.42 16.42 38.38 15.96Q39.34 15.50 39.96 14.57L39.96 14.57L41.23 15.43Q40.49 16.66 39.19 17.29Q37.90 17.93 36.29 17.93L36.29 17.93ZM44.57 17.81L44.57 5.18L46.27 5.18L46.27 17.81L44.57 17.81ZM45.43 2.42Q44.90 2.42 44.54 2.06Q44.18 1.70 44.18 1.20L44.18 1.20Q44.18 0.72 44.54 0.36Q44.90 0 45.43 0L45.43 0Q45.96 0 46.32 0.35Q46.68 0.70 46.68 1.18L46.68 1.18Q46.68 1.70 46.32 2.06Q45.96 2.42 45.43 2.42L45.43 2.42ZM60.84 5.18L62.54 5.18L62.54 17.81L60.91 17.81L60.91 15.31Q60.14 16.58 58.88 17.26Q57.62 17.93 56.04 17.93L56.04 17.93Q54.26 17.93 52.82 17.11Q51.38 16.30 50.57 14.83Q49.75 13.37 49.75 11.50L49.75 11.50Q49.75 9.62 50.57 8.16Q51.38 6.70 52.82 5.89Q54.26 5.09 56.04 5.09L56.04 5.09Q57.58 5.09 58.81 5.72Q60.05 6.36 60.84 7.58L60.84 7.58L60.84 5.18ZM56.18 16.42Q57.50 16.42 58.57 15.80Q59.64 15.19 60.25 14.06Q60.86 12.94 60.86 11.50L60.86 11.50Q60.86 10.06 60.25 8.93Q59.64 7.80 58.57 7.19Q57.50 6.58 56.18 6.58L56.18 6.58Q54.84 6.58 53.77 7.19Q52.70 7.80 52.09 8.93Q51.48 10.06 51.48 11.50L51.48 11.50Q51.48 12.94 52.09 14.06Q52.70 15.19 53.77 15.80Q54.84 16.42 56.18 16.42L56.18 16.42ZM70.85 17.93Q69.14 17.93 68.22 16.97Q67.30 16.01 67.30 14.30L67.30 14.30L67.30 0L69 0L69 14.16Q69 15.29 69.53 15.88Q70.06 16.46 71.11 16.46L71.11 16.46Q71.78 16.46 72.26 16.25L72.26 16.25L72.38 17.66Q71.64 17.93 70.85 17.93L70.85 17.93ZM99.34 0.86Q102.22 0.86 103.82 2.52Q105.43 4.18 105.43 7.32L105.43 7.32L105.43 17.81L103.68 17.81L103.68 7.37Q103.68 4.92 102.44 3.68Q101.21 2.45 99.07 2.45L99.07 2.45Q96.82 2.45 95.54 3.76Q94.27 5.06 94.27 7.75L94.27 7.75L94.27 17.81L92.52 17.81L92.52 7.37Q92.52 4.92 91.32 3.68Q90.12 2.45 87.98 2.45L87.98 2.45Q85.70 2.45 84.42 3.76Q83.14 5.06 83.14 7.75L83.14 7.75L83.14 17.81L81.36 17.81L81.36 1.01L83.06 1.01L83.06 3.82Q83.76 2.38 85.13 1.62Q86.50 0.86 88.37 0.86L88.37 0.86Q90.34 0.86 91.74 1.69Q93.14 2.52 93.77 4.01L93.77 4.01Q94.49 2.47 95.94 1.67Q97.39 0.86 99.34 0.86L99.34 0.86ZM120.24 5.18L121.94 5.18L121.94 17.81L120.31 17.81L120.31 15.31Q119.54 16.58 118.28 17.26Q117.02 17.93 115.44 17.93L115.44 17.93Q113.66 17.93 112.22 17.11Q110.78 16.30 109.97 14.83Q109.15 13.37 109.15 11.50L109.15 11.50Q109.15 9.62 109.97 8.16Q110.78 6.70 112.22 5.89Q113.66 5.09 115.44 5.09L115.44 5.09Q116.98 5.09 118.21 5.72Q119.45 6.36 120.24 7.58L120.24 7.58L120.24 5.18ZM115.58 16.42Q116.90 16.42 117.97 15.80Q119.04 15.19 119.65 14.06Q120.26 12.94 120.26 11.50L120.26 11.50Q120.26 10.06 119.65 8.93Q119.04 7.80 117.97 7.19Q116.90 6.58 115.58 6.58L115.58 6.58Q114.24 6.58 113.17 7.19Q112.10 7.80 111.49 8.93Q110.88 10.06 110.88 11.50L110.88 11.50Q110.88 12.94 111.49 14.06Q112.10 15.19 113.17 15.80Q114.24 16.42 115.58 16.42L115.58 16.42ZM136.51 0L138.22 0L138.22 17.81L136.58 17.81L136.58 15.31Q135.82 16.58 134.56 17.26Q133.30 17.93 131.71 17.93L131.71 17.93Q129.94 17.93 128.50 17.11Q127.06 16.30 126.24 14.83Q125.42 13.37 125.42 11.50L125.42 11.50Q125.42 9.62 126.24 8.16Q127.06 6.70 128.50 5.89Q129.94 5.09 131.71 5.09L131.71 5.09Q133.25 5.09 134.48 5.72Q135.72 6.36 136.51 7.58L136.51 7.58L136.51 0ZM131.86 16.42Q133.18 16.42 134.24 15.80Q135.31 15.19 135.92 14.06Q136.54 12.94 136.54 11.50L136.54 11.50Q136.54 10.06 135.92 8.93Q135.31 7.80 134.24 7.19Q133.18 6.58 131.86 6.58L131.86 6.58Q130.51 6.58 129.44 7.19Q128.38 7.80 127.76 8.93Q127.15 10.06 127.15 11.50L127.15 11.50Q127.15 12.94 127.76 14.06Q128.38 15.19 129.44 15.80Q130.51 16.42 131.86 16.42L131.86 16.42ZM149.40 5.09Q151.78 5.09 153.18 6.47Q154.58 7.85 154.58 10.49L154.58 10.49L154.58 17.81L152.88 17.81L152.88 10.66Q152.88 8.69 151.90 7.66Q150.91 6.62 149.09 6.62L149.09 6.62Q147.05 6.62 145.86 7.84Q144.67 9.05 144.67 11.18L144.67 11.18L144.67 17.81L142.97 17.81L142.97 5.18L144.60 5.18L144.60 7.51Q145.30 6.36 146.53 5.72Q147.77 5.09 149.40 5.09L149.40 5.09ZM164.66 16.42Q165.84 16.42 166.84 16.00Q167.83 15.58 168.53 14.76L168.53 14.76L169.49 15.86Q168.65 16.87 167.40 17.40Q166.15 17.93 164.64 17.93L164.64 17.93Q162.70 17.93 161.18 17.10Q159.67 16.27 158.83 14.81Q157.99 13.34 157.99 11.50L157.99 11.50Q157.99 9.65 158.80 8.18Q159.60 6.72 161.02 5.90Q162.43 5.09 164.23 5.09L164.23 5.09Q165.91 5.09 167.27 5.86Q168.62 6.62 169.43 7.99Q170.23 9.36 170.28 11.11L170.28 11.11L159.91 13.13Q160.39 14.66 161.65 15.54Q162.91 16.42 164.66 16.42L164.66 16.42ZM164.23 6.55Q162.91 6.55 161.87 7.16Q160.82 7.78 160.24 8.87Q159.65 9.96 159.65 11.38L159.65 11.38Q159.65 11.74 159.67 11.90L159.67 11.90L168.58 10.18Q168.29 8.59 167.11 7.57Q165.94 6.55 164.23 6.55L164.23 6.55ZM177.14 17.93Q175.61 17.93 174.20 17.48Q172.80 17.04 172.01 16.37L172.01 16.37L172.78 15.02Q173.57 15.65 174.77 16.04Q175.97 16.44 177.26 16.44L177.26 16.44Q178.99 16.44 179.82 15.90Q180.65 15.36 180.65 14.38L180.65 14.38Q180.65 13.68 180.19 13.28Q179.74 12.89 179.04 12.68Q178.34 12.48 177.19 12.29L177.19 12.29Q175.66 12 174.72 11.70Q173.78 11.40 173.12 10.68Q172.46 9.96 172.46 8.69L172.46 8.69Q172.46 7.10 173.78 6.10Q175.10 5.09 177.46 5.09L177.46 5.09Q178.68 5.09 179.90 5.41Q181.13 5.74 181.92 6.26L181.92 6.26L181.18 7.63Q179.62 6.55 177.46 6.55L177.46 6.55Q175.82 6.55 175.00 7.13Q174.17 7.70 174.17 8.64L174.17 8.64Q174.17 9.36 174.64 9.79Q175.10 10.22 175.80 10.43Q176.50 10.63 177.72 10.85L177.72 10.85Q179.23 11.14 180.14 11.42Q181.06 11.71 181.70 12.41Q182.35 13.10 182.35 14.33L182.35 14.33Q182.35 15.98 180.97 16.96Q179.59 17.93 177.14 17.93L177.14 17.93ZM188.88 17.93Q187.34 17.93 185.94 17.48Q184.54 17.04 183.74 16.37L183.74 16.37L184.51 15.02Q185.30 15.65 186.50 16.04Q187.70 16.44 189 16.44L189 16.44Q190.73 16.44 191.56 15.90Q192.38 15.36 192.38 14.38L192.38 14.38Q192.38 13.68 191.93 13.28Q191.47 12.89 190.78 12.68Q190.08 12.48 188.93 12.29L188.93 12.29Q187.39 12 186.46 11.70Q185.52 11.40 184.86 10.68Q184.20 9.96 184.20 8.69L184.20 8.69Q184.20 7.10 185.52 6.10Q186.84 5.09 189.19 5.09L189.19 5.09Q190.42 5.09 191.64 5.41Q192.86 5.74 193.66 6.26L193.66 6.26L192.91 7.63Q191.35 6.55 189.19 6.55L189.19 6.55Q187.56 6.55 186.73 7.13Q185.90 7.70 185.90 8.64L185.90 8.64Q185.90 9.36 186.37 9.79Q186.84 10.22 187.54 10.43Q188.23 10.63 189.46 10.85L189.46 10.85Q190.97 11.14 191.88 11.42Q192.79 11.71 193.44 12.41Q194.09 13.10 194.09 14.33L194.09 14.33Q194.09 15.98 192.71 16.96Q191.33 17.93 188.88 17.93L188.88 17.93Z" transform="translate(36, 9.024)"></path></svg>